<svg width="80" height="79" viewBox="0 0 80 79" fill="none" xmlns="http://www.w3.org/2000/svg">
    <g clip-path="url(#clip0_6_98)">
        <path
            d="M42.5 4.9375C36.5326 4.9375 30.8097 7.2784 26.5901 11.4452C22.3705 15.612 20 21.2635 20 27.1562V61.9508C19.9998 64.7885 21.0086 67.5362 22.8503 69.7144C24.6921 71.8926 27.2499 73.3631 30.0775 73.8692C32.905 74.3753 35.8227 73.885 38.3215 72.4837C40.8204 71.0824 42.7416 68.8592 43.75 66.202L46.31 59.4722C47.2936 56.8796 48.6692 54.4492 50.39 52.2634L60.43 39.5197C62.9233 36.3532 64.4666 32.5591 64.8841 28.5692C65.3017 24.5792 64.5769 20.5537 62.792 16.9505C61.0072 13.3473 58.2341 10.3111 54.7882 8.18738C51.3423 6.06366 47.3619 4.93766 43.3 4.9375H42.5ZM15 27.1562C15 19.954 17.8973 13.0467 23.0546 7.95388C28.2118 2.8611 35.2065 0 42.5 0L43.3 0C48.2979 0.000448478 53.1953 1.38612 57.435 3.99937C61.6748 6.61262 65.0867 10.3485 67.2825 14.782C69.4784 19.2155 70.37 24.1687 69.856 29.0779C69.342 33.9871 67.443 38.6553 64.375 42.5514L54.335 55.2951C52.9226 57.0868 51.7931 59.0795 50.985 61.2052L48.435 67.9351C47.0169 71.6775 44.3126 74.8092 40.7944 76.7833C37.2762 78.7574 33.1676 79.4485 29.1859 78.7358C25.2043 78.0232 21.6027 75.9521 19.0099 72.8843C16.417 69.8164 14.9978 65.9467 15 61.9508V27.1562ZM42.5 19.75C40.5109 19.75 38.6032 20.5303 37.1967 21.9192C35.7902 23.3082 35 25.192 35 27.1562V40.4628C35.56 40.1666 36.115 39.8555 36.66 39.5148C38.295 38.4878 39.545 37.3423 40.26 35.9252C40.557 35.3392 41.0777 34.8938 41.7073 34.6868C42.337 34.4799 43.0241 34.5284 43.6175 34.8217C44.2109 35.115 44.662 35.6292 44.8716 36.2509C45.0812 36.8727 45.032 37.5512 44.735 38.1372C43.455 40.6702 41.37 42.4082 39.34 43.6821C37.9394 44.5309 36.4903 45.2991 35 45.9829V56.7812C35 57.436 34.7366 58.0639 34.2678 58.5269C33.7989 58.9899 33.163 59.25 32.5 59.25C31.837 59.25 31.2011 58.9899 30.7322 58.5269C30.2634 58.0639 30 57.436 30 56.7812V27.1562C30 23.8825 31.317 20.7428 33.6612 18.4279C36.0054 16.113 39.1848 14.8125 42.5 14.8125C45.8152 14.8125 48.9946 16.113 51.3388 18.4279C53.683 20.7428 55 23.8825 55 27.1562V29.625C55 30.2798 54.7366 30.9077 54.2678 31.3707C53.7989 31.8336 53.163 32.0937 52.5 32.0937C51.837 32.0937 51.2011 31.8336 50.7322 31.3707C50.2634 30.9077 50 30.2798 50 29.625V27.1562C50 25.192 49.2098 23.3082 47.8033 21.9192C46.3968 20.5303 44.4891 19.75 42.5 19.75Z"
            fill="#0F0326" />
    </g>
    <defs>
        <clipPath id="clip0_6_98">
            <rect width="80" height="79" fill="white" />
        </clipPath>
    </defs>
</svg>