<?xml version="1.0" standalone="no"?>
<!DOCTYPE svg PUBLIC "-//W3C//DTD SVG 20010904//EN" "http://www.w3.org/TR/2001/REC-SVG-20010904/DTD/svg10.dtd">
<svg version="1.0" xmlns="http://www.w3.org/2000/svg" width="300.000000pt" height="300.000000pt"
    viewBox="0 0 300.000000 300.000000" preserveAspectRatio="xMidYMid meet">

    <g transform="translate(0.000000,300.000000) scale(0.100000,-0.100000)" fill="#0f0326" stroke="none">
        <path d="M1055 2180 c-198 -3 -366 -9 -372 -13 -10 -6 -13 -150 -13 -661 0
-582 2 -655 16 -667 12 -10 172 -13 806 -13 l790 -1 25 30 26 29 -7 241 c-15
536 -35 863 -57 952 -16 60 -54 92 -125 103 -60 10 -436 10 -1089 0z m1083
-86 c45 -12 54 -53 68 -294 7 -124 13 -239 14 -256 l0 -30 -67 7 c-38 4 -159
10 -270 14 l-203 8 46 40 c73 64 99 135 74 201 -29 76 -115 68 -210 -21 -32
-29 -60 -53 -64 -53 -3 0 -6 8 -6 18 0 28 -37 81 -72 102 -43 26 -93 25 -148
-2 -36 -18 -48 -31 -59 -65 -14 -40 -14 -44 15 -99 18 -36 46 -71 72 -91 l44
-33 -230 0 c-126 0 -263 -3 -305 -6 l-77 -7 0 287 0 286 678 0 c372 0 687 -3
700 -6z m-719 -319 c33 -17 48 -48 61 -130 13 -77 13 -75 -6 -75 -24 0 -122
58 -139 83 -32 46 -8 137 36 137 11 0 33 -7 48 -15z m279 -47 c34 -34 -4 -103
-82 -146 -31 -18 -58 -32 -61 -32 -27 0 31 127 74 163 36 30 51 33 69 15z
m-344 -248 l119 0 -20 -22 c-51 -57 -163 -237 -157 -252 17 -46 79 5 139 114
21 38 51 82 67 97 l30 28 34 -40 c19 -22 47 -60 61 -85 63 -109 72 -120 102
-120 68 0 39 89 -73 224 l-41 49 145 -6 c80 -4 215 -7 302 -7 l156 0 6 -112
c3 -62 7 -184 8 -271 l3 -157 -748 -3 -749 -3 6 29 c3 16 6 144 6 283 l0 254
163 3 c89 2 198 2 242 0 44 -1 134 -3 199 -3z" />
    </g>
</svg>