<svg width="64" height="64" viewBox="0 0 64 64" fill="none" xmlns="http://www.w3.org/2000/svg">
<g clip-path="url(#clip0_9_29)">
<path d="M61.4 36.16C60.0575 38.4788 58.7225 40.8025 57.37 43.115C54.5792 47.8867 51.7829 52.6554 48.9812 57.4213C48.9387 57.4913 48.8875 57.5563 48.8087 57.6713C48.33 57.125 48.0375 56.4888 47.6837 55.9013C46.4575 53.8738 45.2612 51.8288 44.0425 49.7975C43.855 49.4863 43.82 49.3063 44.1675 49.0475C49.745 44.8408 55.315 40.6246 60.8775 36.3988C61.0237 36.2875 61.1887 36.2013 61.345 36.1025L61.4 36.16Z" fill="#884C2B"/>
<path d="M46.7062 58.79H21.2375L21.2112 58.65C22.4512 58.15 23.69 57.65 24.9325 57.15C30.3575 54.995 35.7804 52.8363 41.2012 50.6738C41.7012 50.475 41.8962 50.5488 42.16 51.0088C43.5975 53.4913 45.0775 55.9475 46.535 58.4163C46.61 58.54 46.7425 58.64 46.7062 58.79Z" fill="#884C2B"/>
<path d="M40.8925 13.6375C40.8925 15.4438 40.8713 17.2513 40.8925 19.0575C41.02 28.255 41.1529 37.4529 41.2912 46.6513C41.2912 46.8113 41.37 47.0163 41.2213 47.1175C41.0725 47.2188 40.9113 47.0613 40.7725 46.9813C33.3125 42.6804 25.8542 38.3775 18.3975 34.0725C16.2717 32.8458 14.1467 31.6225 12.0225 30.4025C11.845 30.3 11.6725 30.1925 11.4337 30.0488L40.6625 13.5813L40.8925 13.6375Z" fill="#C6774A"/>
<path d="M39.765 48.925C38.2012 49.55 36.765 50.1362 35.3187 50.7137C29.0075 53.2362 22.6937 55.7475 16.39 58.2937C15.8537 58.5112 15.7375 58.3862 15.6475 57.8975C14.6967 52.7675 13.7383 47.6392 12.7725 42.5125C12.1992 39.4492 11.6275 36.3846 11.0575 33.3187C11.0162 33.0975 10.99 32.8737 10.9325 32.4887L39.765 48.925Z" fill="#C6774A"/>
<path d="M43.4662 46.8062C43.3812 35.9312 43.2962 25.1812 43.2162 14.2787C43.9912 14.9125 44.6587 15.4562 45.3225 16.0037L63.37 30.89C63.9762 31.39 63.975 31.3825 63.3488 31.855C56.9238 36.6992 50.4996 41.5437 44.0762 46.3887C43.91 46.51 43.7387 46.625 43.4662 46.8062Z" fill="#C6774A"/>
<g filter="url(#filter0_d_9_29)">
<path d="M10.8438 27.9287C11.3038 25.7387 11.7325 23.6875 12.1675 21.6375C13.3133 16.2283 14.4613 10.82 15.6113 5.4125C15.6409 5.31284 15.6618 5.21079 15.6738 5.1075C15.6913 4.52875 15.9687 4.53625 16.4362 4.685C23.7571 7.02917 31.0808 9.3625 38.4075 11.685C38.625 11.7538 38.8363 11.8387 39.1775 11.9612L10.8438 27.9287Z" fill="#A35C33"/>
<path d="M46.355 3.97499L43.98 7.17249C43.2875 8.10749 42.5888 9.03874 41.9038 9.97874C41.7013 10.2575 41.5288 10.3762 41.14 10.2487C34.9542 8.19374 28.7638 6.15207 22.5688 4.12374C22.4913 4.09874 22.4188 4.05874 22.2388 3.97999L46.355 3.97499Z" fill="#A35C33"/>
<path d="M12.2675 9.83C11.4342 13.9325 10.5984 18.0354 9.76003 22.1387C9.31503 24.3175 8.86503 26.4938 8.42503 28.6725C8.37253 28.9313 8.33502 29.1212 7.99002 29.1537C5.50627 29.3875 3.02502 29.6463 0.54377 29.8938C0.51002 29.8938 0.472526 29.865 0.370026 29.82C4.28669 23.135 8.20002 16.4554 12.11 9.78125L12.2675 9.83Z" fill="#A35C33"/>
<path d="M0.0125122 32.375C1.43126 32.1762 2.85126 31.9725 4.27126 31.7812C5.36376 31.635 6.46377 31.5412 7.54877 31.3537C8.11627 31.255 8.29877 31.4312 8.39127 31.9637C8.99877 35.2562 9.64127 38.5425 10.2663 41.83C10.9629 45.4642 11.6604 49.0979 12.3588 52.7312C12.3876 52.8148 12.3986 52.9034 12.3911 52.9915C12.3835 53.0796 12.3576 53.1651 12.315 53.2425C12.085 52.8675 11.875 52.5225 11.6713 52.1762C7.89876 45.7596 4.1246 39.3429 0.348763 32.9262C0.260013 32.775 0.223762 32.5638 0.0125122 32.5038V32.375Z" fill="#A35C33"/>
<path d="M60.8262 25.8813C55.1654 21.1679 49.5271 16.4775 43.9112 11.81C43.5662 11.5238 43.515 11.3625 43.82 10.9838C45.2825 9.1725 46.715 7.335 48.1362 5.48375C48.4312 5.1 48.5687 5.03125 48.8487 5.50125C52.7787 12.0904 56.7167 18.6738 60.6625 25.2513C60.765 25.4288 60.9287 25.5913 60.8262 25.8813Z" fill="#A35C33"/>
</g>
</g>
<defs>
<filter id="filter0_d_9_29" x="-3.98749" y="3.97499" width="68.8462" height="57.2675" filterUnits="userSpaceOnUse" color-interpolation-filters="sRGB">
<feFlood flood-opacity="0" result="BackgroundImageFix"/>
<feColorMatrix in="SourceAlpha" type="matrix" values="0 0 0 0 0 0 0 0 0 0 0 0 0 0 0 0 0 0 127 0" result="hardAlpha"/>
<feOffset dy="4"/>
<feGaussianBlur stdDeviation="2"/>
<feComposite in2="hardAlpha" operator="out"/>
<feColorMatrix type="matrix" values="0 0 0 0 0 0 0 0 0 0 0 0 0 0 0 0 0 0 0.25 0"/>
<feBlend mode="normal" in2="BackgroundImageFix" result="effect1_dropShadow_9_29"/>
<feBlend mode="normal" in="SourceGraphic" in2="effect1_dropShadow_9_29" result="shape"/>
</filter>
<clipPath id="clip0_9_29">
<rect width="64" height="64" fill="white"/>
</clipPath>
</defs>
</svg>
